<svg xmlns="http://www.w3.org/2000/svg" width="108" height="108" viewBox="0 0 108 108" role="img" aria-labelledby="af-t af-d">
  <title id="af-t">Ephyra adaptive icon foreground</title>
  <desc id="af-d">Foreground layer: the ephyra jellyfish, held inside the 66dp safe zone.</desc>
  <g transform="translate(54 54) scale(0.24) translate(-256 -278)">
      <polygon points="138,226 138,198 166,168 212,150 300,150 346,168 374,198 374,226" fill="#F5F1E8"/>
      <polygon points="138,206 374,206 374,226 138,226" fill="#FF7A59"/>
      <polygon points="167.0,226 193.0,226 161.0,374 147.0,374" fill="#F5F1E8"/>
      <polygon points="205.0,226 231.0,226 212.0,392 198.0,392" fill="#F5F1E8"/>
      <polygon points="243.0,226 269.0,226 263.0,406 249.0,406" fill="#F5F1E8"/>
      <polygon points="281.0,226 307.0,226 314.0,392 300.0,392" fill="#F5F1E8"/>
      <polygon points="319.0,226 345.0,226 365.0,374 351.0,374" fill="#F5F1E8"/>
  </g>
</svg>
